<svg xmlns="http://www.w3.org/2000/svg" xmlns:svg="http://www.w3.org/2000/svg" id="svg2" width="800" height="800" version="1.1" viewBox="0 0 800 800"><metadata id="metadata7"/><g id="layer1" transform="translate(0,-252.36216)" style="display:inline;opacity:.41199999"><path style="fill:#d3d3d3;fill-rule:evenodd;stroke:#000;stroke-width:1px;stroke-linecap:butt;stroke-linejoin:miter;stroke-opacity:1;fill-opacity:1" id="path4733" d="m 181.12641,469.21179 -4.31254,-49.35455 120.27177,-140.87609 81.93814,6.70838 136.56356,15.81263 60.37547,36.89612 104.45915,95.83408 20.12515,35.93777 -2.39585,96.31325 -111.16753,105.41749 c -53.1232,29.61033 -107.38028,57.05497 -161.48042,84.81316 l -225.21009,4.31253 -5.27087,-41.20865 83.85482,-32.58359 57.02127,-32.58358 50.3129,-63.2505 28.75022,-52.22957 -6.22922,-30.18773 -35.45861,-11.50009 -51.27123,-25.8752 z"/><path style="fill:#d3d3d3;fill-rule:evenodd;stroke:#000;stroke-width:1px;stroke-linecap:butt;stroke-linejoin:miter;stroke-opacity:1;fill-opacity:1" id="path4739" d="m 227.14951,980.90592 82.49419,-188.22619 178.93107,53.44694 11.6189,38.34238 10.45701,51.12316 -15.10457,56.35167 -50.54221,31.95202 -47.05655,14.5236 -67.38963,-13.9427 -69.13245,-24.98064 z"/></g></svg>